HIERARCHY
ROOT Hips
{
  OFFSET 13.6774 106.653 -34.4427
  CHANNELS 6 Xposition Yposition Zposition Zrotation Xrotation Yrotation
  JOINT ToSpine
  {
    OFFSET -2.69724 7.43032 -0.144315
    CHANNELS 3 Zrotation Xrotation Yrotation
    JOINT Spine
    {
      OFFSET -0.0310711 10.7595 1.96963
      CHANNELS 3 Zrotation Xrotation Yrotation
      JOINT Spine1
      {
        OFFSET 19.9056 3.91189 0.764692
        CHANNELS 3 Zrotation Xrotation Yrotation
        JOINT Neck
        {
          OFFSET 25.9749 7.03908 -0.130764
          CHANNELS 3 Zrotation Xrotation Yrotation
          JOINT Head
          {
            OFFSET 9.52751 0.295786 -0.907742
            CHANNELS 3 Zrotation Xrotation Yrotation
            End Site
            {
              OFFSET 16.4037 0.713936 2.7358
            }
          }
        }
        JOINT LeftShoulder
        {
          OFFSET 17.7449 4.33886 11.7777
          CHANNELS 3 Zrotation Xrotation Yrotation
          JOINT LeftArm
          {
            OFFSET 0.911315 1.27913 9.80584
            CHANNELS 3 Zrotation Xrotation Yrotation
            JOINT LeftForeArm
            {
              OFFSET 28.6126 1.18197 -3.53199
              CHANNELS 3 Zrotation Xrotation Yrotation
              JOINT LeftHand
              {
                OFFSET 27.5088 0.0218783 0.327423
                CHANNELS 3 Zrotation Xrotation Yrotation
                End Site
                {
                  OFFSET 18.6038 -0.000155887 0.382096
                }
              }
            }
          }
        }
        JOINT RightShoulder
        {
          OFFSET 17.1009 2.89543 -12.2328
          CHANNELS 3 Zrotation Xrotation Yrotation
          JOINT RightArm
          {
            OFFSET 1.4228 0.178766 -10.211
            CHANNELS 3 Zrotation Xrotation Yrotation
            JOINT RightForeArm
            {
              OFFSET 28.733 1.87905 2.64907
              CHANNELS 3 Zrotation Xrotation Yrotation
              JOINT RightHand
              {
                OFFSET 27.4588 0.290562 -0.101845
                CHANNELS 3 Zrotation Xrotation Yrotation
                End Site
                {
                  OFFSET 17.8396 -0.255518 -0.000602873
                }
              }
            }
          }
        }
      }
    }
  }
  JOINT LeftUpLeg
  {
    OFFSET -5.61296 -2.22332 -10.2353
    CHANNELS 3 Zrotation Xrotation Yrotation
    JOINT LeftLeg
    {
      OFFSET 2.56703 -44.7417 -7.93097
      CHANNELS 3 Zrotation Xrotation Yrotation
      JOINT LeftFoot
      {
        OFFSET 3.16933 -46.5642 -3.96578
        CHANNELS 3 Zrotation Xrotation Yrotation
        JOINT LeftToeBase
        {
          OFFSET 0.346054 -6.02161 12.8035
          CHANNELS 3 Zrotation Xrotation Yrotation
          End Site
          {
            OFFSET 0.134235 -1.35082 5.13018
          }
        }
      }
    }
  }
  JOINT RightUpLeg
  {
    OFFSET -5.7928 -1.72406 10.6446
    CHANNELS 3 Zrotation Xrotation Yrotation
    JOINT RightLeg
    {
      OFFSET -2.57161 -44.7178 -7.85259
      CHANNELS 3 Zrotation Xrotation Yrotation
      JOINT RightFoot
      {
        OFFSET -3.10148 -46.5936 -4.03391
        CHANNELS 3 Zrotation Xrotation Yrotation
        JOINT RightToeBase
        {
          OFFSET -0.0828122 -6.13587 12.8035
          CHANNELS 3 Zrotation Xrotation Yrotation
          End Site
          {
            OFFSET -0.131328 -1.35082 5.13018
          }
        }
      }
    }
  }
}
MOTION
Frames: 19
Frame Time: 0.03333333333333333
0.0000 93.1000 0.0000 75.2313 -31.9421 -12.1135 -71.0186 -0.0046 87.8972 107.0160 70.6661 -21.9972 0.0570 20.9522 2.0483 -144.4924 32.0497 167.1202 -147.0500 71.9883 -178.4974 0.2131 -12.2940 -32.3338 -85.8536 48.4777 -63.1561 16.0690 21.7736 -37.0076 0.1431 -0.0494 -0.1204 -2.1787 4.9680 43.1337 -81.8505 -30.2038 80.0682 15.2505 -9.8743 57.0809 0.0127 -0.1509 -0.1680 -25.7964 5.9358 96.1271 -8.5362 68.8037 1.1286 -0.9738 -11.8122 -1.6343 7.0887 -17.2998 18.6730 -31.7257 -1.8940 87.7362 3.7058 64.0462 -8.1193 -9.4218 -20.1105 1.3625 1.9999 -4.8852 -17.1042 
0.0000 93.1000 0.0000 73.8038 -32.4810 -12.4413 -71.0144 -0.0020 87.9019 107.2475 70.6964 -22.6868 -0.0946 21.6489 2.0617 -143.3888 31.9078 165.9758 -147.2108 71.8502 -177.9361 0.2311 -12.3917 -31.5037 -85.6250 48.9243 -60.8005 13.8621 23.0626 -33.0622 0.0877 -0.0111 -0.1072 -2.1244 4.9907 42.5461 -83.6006 -31.0856 81.1514 16.7205 -8.8197 62.6185 0.0989 -0.1030 0.0871 -25.1894 4.2841 93.8660 -6.9077 62.9011 -2.5341 -1.7632 -9.0088 -1.2855 6.3245 -14.9632 13.6951 -34.8325 -1.0283 88.7186 2.4326 61.8543 -6.9456 -8.1955 -21.0472 1.0284 2.0012 -3.9695 -19.5872 
0.0000 93.1000 0.0000 73.9379 -33.3513 -13.1627 -71.0083 0.1068 87.8775 108.2130 71.5255 -22.6732 -0.5058 22.5811 2.3055 -144.4028 31.8052 167.8187 -148.2257 71.7268 -177.0857 -0.2195 -11.8817 -31.3912 -86.2720 48.6295 -58.1005 13.1648 25.2974 -29.9805 -0.0164 0.5431 -0.6505 -2.0973 4.7271 42.2835 -85.0737 -30.7447 81.3247 15.7912 -7.7381 66.5922 -0.4045 0.5154 -0.4022 -27.2907 4.0249 92.5447 -5.3906 55.9839 -9.1368 -4.4321 -5.2371 -0.9809 5.6519 -14.4298 13.6833 -38.0631 -1.2603 90.3609 3.0291 58.6840 -6.0776 -8.9567 -21.6016 1.3827 3.0491 -3.1214 -23.3178 
0.0000 93.1000 0.0000 73.0924 -34.0096 -14.7019 -71.0042 0.0757 87.8939 106.9612 72.6316 -21.6309 -0.7921 23.2315 1.7691 -144.0194 31.8193 168.0327 -148.8342 71.6498 -176.4489 0.1098 -11.1965 -31.2673 -89.1789 48.5473 -53.8099 12.1529 26.0237 -28.7370 0.1959 0.3838 -0.4822 -2.0729 5.1076 41.4191 -84.9826 -30.6788 81.9417 16.0029 -6.0744 69.5509 -0.2050 0.3544 -0.2190 -28.8255 3.0761 92.5581 -4.9693 51.1161 -12.9842 -6.1909 -3.9101 -0.3778 5.0043 -15.5173 12.4547 -39.9187 -0.6224 92.0481 1.9826 55.7822 -8.4677 -8.9136 -21.9178 1.3415 2.2522 -3.6468 -17.7550 
0.0000 93.1000 0.0000 71.9675 -34.9289 -14.3938 -70.9942 0.0838 87.8867 106.0371 72.8729 -19.3993 -1.1062 23.1757 2.1931 -145.5868 31.9315 168.1876 -147.6512 70.8645 -176.6503 0.2504 -10.6454 -30.1806 -89.9871 49.5398 -50.9843 11.2659 23.7078 -28.6357 0.2975 0.4392 -0.5684 -2.0816 5.1393 41.2871 -84.5936 -30.6920 81.9461 15.7803 -4.8457 72.5848 -0.0820 0.3740 -0.3166 -30.8371 3.1227 92.8867 -5.0567 47.2186 -15.7892 -8.0036 -1.0470 0.1483 4.8415 -15.1075 12.4919 -41.7292 0.0589 92.8146 2.2510 53.1330 -6.5923 -8.8385 -21.1330 1.2195 2.0543 -5.0084 -16.8126 
0.0000 93.1000 0.0000 71.1904 -35.9190 -15.7612 -70.9923 0.0199 87.8914 104.8659 73.5427 -17.1635 -1.2231 24.1291 2.2440 -145.4264 31.8846 167.7161 -147.0125 70.9118 -178.0479 0.6567 -10.2523 -29.8717 -89.0464 51.6321 -49.2081 9.7068 20.6427 -27.7830 0.1526 0.1009 -0.2246 -2.1016 5.0926 41.4898 -85.1507 -30.7275 80.9380 15.7807 -5.1236 74.6718 0.2510 0.0029 -0.0684 -33.6442 2.8776 93.7022 -3.9299 44.0948 -15.1548 -7.6574 0.6182 0.7178 3.0449 -10.5906 8.8851 -44.8676 -1.0942 92.5780 1.8177 50.1191 -4.8178 -8.6540 -20.7140 1.0168 2.0930 -5.7389 -18.3294 
0.0000 93.1000 0.0000 70.3722 -37.4626 -15.7064 -71.0034 -0.0206 87.9080 100.2666 73.8153 -11.9986 -0.0842 24.2464 2.3569 -146.2399 31.2110 167.9995 -146.5177 70.5686 -178.7868 0.8691 -9.8140 -29.2892 -91.0752 52.7081 -46.3065 8.0810 18.1909 -28.2140 0.0365 -0.1281 0.0260 -2.1371 5.5174 41.3173 -84.8427 -30.1792 80.7382 15.8998 -4.4653 74.8373 0.2273 -0.2072 0.1490 -36.2607 3.0141 93.8471 -3.6012 41.3993 -16.2400 -4.7944 1.6407 0.5494 4.1254 -11.1574 6.3835 -46.4614 -0.8434 94.0861 0.5830 47.0750 -5.9004 -7.6928 -19.8032 0.6300 2.0512 -5.8219 -13.0141 
0.0000 93.1000 0.0000 68.9983 -38.4194 -16.3157 -71.0009 -0.0116 88.0022 95.9848 73.3157 -7.1819 1.2562 24.1040 1.6261 -148.3624 30.5399 167.4142 -146.0797 70.1372 178.6257 0.4873 -9.6696 -28.3568 -91.0164 53.6572 -45.3244 7.7546 16.8725 -29.0254 -0.0634 0.2571 -0.1390 -1.9468 5.1048 41.2954 -83.6226 -29.8010 80.1269 15.5446 -4.9032 75.0049 0.2804 0.1547 0.3163 -38.7342 2.9053 96.4271 -3.8378 38.9990 -16.9931 -2.4820 3.3343 -0.0946 6.4157 -16.9943 9.6944 -47.6596 -1.6612 94.1556 0.9742 44.9663 -4.9845 -7.9012 -18.8152 1.0202 2.1737 -7.6397 -12.6932 
0.0000 93.1000 0.0000 68.5451 -37.6445 -16.3106 -71.0141 0.0187 88.0036 92.9750 73.4334 -4.5041 1.1120 24.2622 2.0405 -149.0819 30.8570 168.0586 -145.4416 70.0480 177.1771 0.2975 -9.5967 -29.0499 -91.6545 53.9861 -45.4118 8.3283 16.5918 -29.0154 -0.1236 0.3119 -0.2322 -2.1386 5.0980 42.2738 -84.7888 -28.9429 78.8777 15.9122 -5.3816 73.9193 -0.1434 0.2376 -0.0437 -39.1043 2.0029 96.0454 -2.8036 38.2354 -11.5660 1.9285 -1.4553 -1.1386 2.6219 -7.4460 3.0331 -50.0375 -2.1650 93.9499 0.9678 42.0939 -4.6601 -7.9170 -17.9122 1.1658 0.7079 -9.1583 -10.8572 
0.0000 93.1000 0.0000 68.8120 -37.0654 -16.3181 -71.0056 -0.0464 87.9847 90.7992 73.3790 -3.7513 1.0973 23.4019 3.9425 -150.4649 30.7323 168.6868 -145.0760 69.2041 177.8072 0.6141 -9.9427 -29.2570 -90.9488 53.7893 -48.3016 9.1305 17.7410 -29.0588 -0.2233 -0.0519 0.0113 -2.2255 4.3325 43.2892 -85.6944 -28.8071 77.8166 15.8622 -6.0645 71.6888 0.0196 -0.1540 -0.0574 -40.2472 0.7256 94.6411 -2.6524 37.2816 -9.8984 2.6951 -3.3944 -0.9841 0.6580 -4.9687 -0.3294 -50.9749 -3.2286 93.8775 0.8099 39.7656 -4.0313 -7.1892 -15.7918 0.9562 1.9910 -10.0577 -13.4424 
0.0000 93.1000 0.0000 67.6390 -36.9369 -15.3404 -71.0113 -0.0311 87.9782 90.1344 73.6563 -1.4361 0.1211 23.5749 3.9490 -150.2850 30.5233 168.6857 -145.5410 69.1289 178.5576 0.3114 -10.8543 -30.0284 -89.9205 53.8750 -50.3969 9.8220 18.9496 -30.0880 0.0354 -0.0329 -0.1643 -2.3791 4.7030 43.3894 -85.9311 -28.7667 76.2549 15.9203 -5.9790 69.6004 0.3314 -0.1128 -0.2640 -40.7842 0.1362 93.7340 -2.9207 36.1411 -8.8269 1.4492 -6.0379 -0.9650 0.0640 -1.7500 0.7705 -51.8084 -2.8949 91.9645 0.3235 38.9181 -2.7025 -5.9971 -13.6079 1.0027 1.0568 -11.5706 -10.0333 
0.0000 93.1000 0.0000 67.5827 -37.6958 -15.3171 -71.0147 -0.0061 87.9643 88.8591 73.2716 -1.1208 -0.2875 22.7281 4.4100 -149.1527 29.8329 168.7654 -145.3282 68.7801 179.5784 0.1058 -11.1898 -29.8541 -90.9736 53.0917 -52.4064 11.8708 20.0581 -32.7604 0.0680 0.1058 -0.0857 -2.3095 4.7051 44.4072 -87.8448 -28.8087 74.9030 17.1228 -7.9466 66.8473 0.3118 0.0873 0.0167 -41.9357 0.0336 93.8313 -3.2244 35.3047 -7.7299 1.8230 -5.6995 -1.1328 0.0568 -3.3805 0.5092 -51.1136 -4.2024 90.9687 0.5750 39.9153 -4.0264 -7.0239 -11.5018 1.3414 2.2107 -14.8390 -8.8248 
0.0000 93.1000 0.0000 67.7025 -38.0693 -15.5225 -71.0413 -0.1024 87.8767 92.0206 73.0087 -4.3313 -0.6361 22.1797 4.7040 -150.2868 30.2866 168.6280 -147.3930 68.3328 -178.9850 0.8319 -11.9127 -30.2982 -90.0790 51.1870 -54.1377 11.6737 18.1678 -34.8515 0.4048 -0.6986 0.4875 -2.4762 5.3822 45.6311 -87.1369 -28.9599 74.9227 15.1378 -8.1438 63.2401 0.8469 -0.7674 -0.0186 -42.6938 -0.6344 92.5911 -3.3894 34.2475 -9.6812 2.3780 -6.1392 -0.5402 -0.2593 -4.2519 3.4965 -51.8256 -5.0215 90.8962 0.8042 39.9940 -2.0109 -7.7844 -7.7688 0.7700 2.0356 -18.6654 -10.6481 
0.0000 93.1000 0.0000 67.8331 -39.3018 -15.0463 -71.0270 -0.0018 87.8428 93.1762 72.5707 -5.4554 -1.0432 21.7804 4.8263 -149.2970 29.0203 168.3633 -147.8516 67.8057 -178.5354 0.2613 -11.7849 -30.3877 -89.9145 49.7404 -56.3373 12.0552 15.9659 -37.8796 0.0135 -0.1150 0.1080 -2.3860 5.2163 45.3659 -86.6976 -29.8314 74.9600 15.5066 -10.2947 60.5572 0.0416 -0.0967 -0.0154 -44.0075 -1.0416 92.5307 -3.5713 32.7561 -9.0541 0.9956 -7.2780 -1.0139 0.0849 -2.8987 1.8657 -51.0815 -5.2533 91.7721 0.5781 41.1836 -0.8320 -6.0478 -7.7163 0.9537 1.8937 -14.8542 -13.4779 
0.0000 93.1000 0.0000 66.6264 -39.1918 -15.4315 -71.0388 0.0254 87.8462 92.0095 72.7235 -4.8474 -0.0909 21.3720 5.0728 -150.3600 27.9328 168.2853 -149.2387 66.9349 -177.1569 0.1338 -11.6742 -30.3425 -90.9305 48.6686 -59.0210 10.8893 13.0315 -40.8494 0.0497 0.0507 0.0083 -2.2785 4.8140 44.4031 -86.9589 -30.7412 74.0934 16.5947 -12.3720 58.4399 -0.2117 0.0542 -0.2259 -45.0247 -1.0317 93.6671 -2.3475 31.9502 -8.6692 2.8177 -7.9675 -1.3949 -1.0828 -0.0025 -0.2057 -50.9816 -4.8992 90.8602 1.9788 42.2555 2.9428 -7.2008 -5.8469 1.0533 1.8133 -17.3387 -18.1201 
0.0000 93.1000 0.0000 66.7921 -39.9977 -15.3702 -71.0272 0.0299 87.8262 92.1095 72.5877 -6.5831 -0.7206 21.2921 5.9510 -151.2617 27.0150 169.9774 -147.9441 66.1557 -177.0953 0.0903 -11.5369 -30.2806 -89.9848 47.7149 -60.5025 10.9587 10.9372 -45.6352 -0.0013 0.0937 0.0103 -2.2747 4.5673 44.5669 -87.0553 -30.9287 73.9686 15.6625 -12.2752 56.3042 -0.2055 0.1277 -0.0751 -45.8790 -0.0407 95.6883 -1.9781 31.2175 -8.6695 2.0059 -8.0405 -1.3536 -0.9645 0.9160 -0.9966 -50.0638 -5.2459 90.8122 2.4089 42.2655 2.2900 -7.2458 -6.7465 1.2457 2.0859 -17.8519 -19.2264 
0.0000 93.1000 0.0000 65.6119 -40.1022 -15.0975 -71.0258 0.0129 87.8167 90.3059 71.6970 -5.6700 -0.7759 20.4158 6.0126 -151.0752 26.9016 171.1379 -151.7350 65.8050 -174.3997 0.0617 -12.1243 -30.3212 -91.0286 45.1265 -61.8505 10.6100 9.9054 -48.5448 0.0035 0.0119 0.0057 -2.2605 3.9180 45.2845 -87.0155 -31.7318 74.0365 14.8686 -12.1737 54.2448 -0.0795 0.0344 0.0594 -46.6814 0.2824 95.7653 -2.7669 29.9064 -7.9072 1.9721 -8.1602 -1.1651 -1.4126 1.0134 -0.4508 -49.9642 -4.9286 90.8139 1.7167 40.3041 3.4890 -8.7429 -5.8634 1.3925 2.1836 -20.9049 -22.3698 
0.0000 93.1000 0.0000 65.3458 -40.9672 -15.2845 -71.0331 0.0195 87.8275 89.2417 71.3163 -3.6822 -0.0636 20.4914 5.3556 -151.2349 25.8143 173.4619 -152.6445 64.9726 -172.6424 -0.0888 -12.9465 -30.2151 -92.1070 42.7817 -61.5235 9.0012 7.1683 -50.8501 0.0639 0.0557 -0.1660 -2.2149 3.9230 44.2938 -87.8071 -32.0940 72.9456 14.5166 -12.0555 51.2726 0.0189 0.1330 0.0022 -46.8372 0.2911 96.4682 -2.1583 28.8454 -8.0626 2.2419 -8.7786 -1.2482 -0.9807 2.7985 -3.1033 -49.7978 -5.0397 90.9296 1.1309 37.1735 1.9216 -8.0804 -6.7437 1.4575 2.2269 -20.1397 -18.8683 
0.0000 93.1000 0.0000 64.3745 -42.1300 -16.0068 -71.0423 -0.0606 87.8327 87.9166 70.4453 -2.6915 -1.0098 20.3465 5.2082 -151.1258 24.7015 172.7012 -154.1545 63.9914 -173.3574 0.2536 -12.9971 -30.2259 -94.9641 40.6263 -62.5530 10.7301 7.8964 -54.6880 -0.0635 -0.3642 0.0156 -2.1368 4.0732 44.3593 -87.0000 -32.9635 73.0397 14.0322 -13.0520 49.4887 0.3062 -0.2909 0.2133 -47.6266 1.1547 97.3485 -1.6760 29.0520 -8.0898 3.2768 -8.8651 -1.0429 -1.2529 1.9593 -3.2078 -48.7690 -5.0770 92.0250 1.1009 33.9450 -0.1239 -6.5332 -6.8739 1.0093 2.1037 -16.9371 -17.1115 
